<?xml version="1.0" encoding="UTF-8" standalone="no"?>
<!-- Created with Inkscape (http://www.inkscape.org/) -->
<svg
   xmlns:dc="http://purl.org/dc/elements/1.1/"
   xmlns:cc="http://creativecommons.org/ns#"
   xmlns:rdf="http://www.w3.org/1999/02/22-rdf-syntax-ns#"
   xmlns:svg="http://www.w3.org/2000/svg"
   xmlns="http://www.w3.org/2000/svg"
   xmlns:xlink="http://www.w3.org/1999/xlink"
   xmlns:sodipodi="http://sodipodi.sourceforge.net/DTD/sodipodi-0.dtd"
   xmlns:inkscape="http://www.inkscape.org/namespaces/inkscape"
   width="100"
   height="100"
   id="svg2"
   sodipodi:version="0.32"
   inkscape:version="0.46"
   version="1.0"
   sodipodi:docname="featherIcon_shadow.svg"
   inkscape:output_extension="org.inkscape.output.svg.inkscape">
  <defs
     id="defs4">
    <linearGradient
       id="linearGradient6709">
      <stop
         style="stop-color:#aaaaaa;stop-opacity:1;"
         offset="0"
         id="stop6711" />
      <stop
         style="stop-color:#555555;stop-opacity:1;"
         offset="1"
         id="stop6713" />
    </linearGradient>
    <inkscape:perspective
       sodipodi:type="inkscape:persp3d"
       inkscape:vp_x="0 : 526.18109 : 1"
       inkscape:vp_y="0 : 1000 : 0"
       inkscape:vp_z="744.09448 : 526.18109 : 1"
       inkscape:persp3d-origin="372.04724 : 350.78739 : 1"
       id="perspective10" />
    <linearGradient
       inkscape:collect="always"
       xlink:href="#linearGradient6709"
       id="linearGradient6715"
       x1="614.34125"
       y1="408.94791"
       x2="468.10385"
       y2="625.53735"
       gradientUnits="userSpaceOnUse"
       gradientTransform="translate(4.7428342,-4.7428342)" />
  </defs>
  <sodipodi:namedview
     id="base"
     pagecolor="#efe7c4"
     bordercolor="#666666"
     borderopacity="1.0"
     gridtolerance="10000"
     guidetolerance="10"
     objecttolerance="10"
     inkscape:pageopacity="0.99607843"
     inkscape:pageshadow="2"
     inkscape:zoom="3.959798"
     inkscape:cx="39.840248"
     inkscape:cy="72.252716"
     inkscape:document-units="px"
     inkscape:current-layer="layer1"
     showgrid="false"
     inkscape:window-width="840"
     inkscape:window-height="900"
     inkscape:window-x="32"
     inkscape:window-y="0" />
  <metadata
     id="metadata7">
    <rdf:RDF>
      <cc:Work
         rdf:about="">
        <dc:format>image/svg+xml</dc:format>
        <dc:type
           rdf:resource="http://purl.org/dc/dcmitype/StillImage" />
      </cc:Work>
    </rdf:RDF>
  </metadata>
  <g
     inkscape:label="Layer 1"
     inkscape:groupmode="layer"
     id="layer1">
    <g
       id="g6192"
       transform="matrix(0.1578328,0,0,0.1578328,-51.911701,-75.389035)"
       style="fill:#000000;fill-opacity:1;stroke:none">
      <path
         style="fill:#000000;fill-opacity:0.37647059;fill-rule:evenodd;stroke:none;stroke-width:9;stroke-linecap:butt;stroke-linejoin:miter;stroke-miterlimit:4;stroke-dasharray:none;stroke-opacity:1"
         d="M 807.96072,488.53036 C 780.25858,491.19263 758.41942,511.4804 740.54491,531.18733 C 713.27295,562.54948 690.49533,597.5799 670.05023,633.81768 C 655.11418,661.72176 641.93044,691.51092 637.49197,722.99911 C 636.6504,733.64063 638.34862,744.92715 644.49197,753.81161 C 640.18755,766.13427 635.86267,778.4498 631.49197,790.74911 C 638.27964,791.33104 644.27068,797.02401 651.24197,795.12411 C 657.10598,783.47486 662.68315,771.46836 668.83572,760.09286 C 681.94673,754.87035 691.81364,744.13737 698.74391,732.00308 C 729.44166,686.72492 762.65159,643.0619 800.56794,603.61636 C 815.44964,587.18875 831.23779,571.41027 845.11697,554.15536 C 854.99498,537.08041 852.83403,511.84607 835.93461,499.99352 C 828.10317,493.56129 818.52453,487.67594 807.96072,488.53036 z"
         id="path6194" />
    </g>
    <g
       id="g6173"
       transform="matrix(0.1578328,0,0,0.1578328,-22.131217,-58.502503)">
      <path
         style="fill:url(#linearGradient6715);fill-opacity:1;fill-rule:evenodd;stroke:#ffffff;stroke-width:9;stroke-linecap:butt;stroke-linejoin:miter;stroke-miterlimit:4;stroke-dasharray:none;stroke-opacity:1"
         d="M 456.63232,638.14607 C 456.63232,638.14607 444.04798,625.19389 451.07648,596.22474 C 463.97441,543.06375 494.30084,495.27773 524.81761,452.278 C 543.7778,425.56212 580.23117,378.49808 617.89959,377.44006 C 628.51163,377.15202 645.85983,389.44199 651.08668,399.75007 C 657.25741,411.91963 655.18766,431.55105 646.03591,441.6714 C 622.65214,467.53005 592.16651,499.33275 569.26432,526.01914 C 551.14054,547.13756 528.48158,578.713 512.19071,601.2755 C 505.08087,611.12248 497.2805,625.74104 488.09498,633.68704 C 484.3012,636.96888 473.29983,642.18668 473.29983,642.18668 L 456.06596,676.889 L 444.36255,672.99633 L 456.63232,638.14607 z"
         id="path6175" />
    </g>
  </g>
</svg>
