<?xml version="1.0" encoding="UTF-8" standalone="no"?>
<svg xmlns="http://www.w3.org/2000/svg" 
   xmlns:svg="http://www.w3.org/2000/svg"
   xmlns:xlink="http://www.w3.org/1999/xlink">
  <defs
     id="defs4">
    <linearGradient
       id="linearGradient4262">
      <stop
         style="stop-color:#555555;stop-opacity:1;"
         offset="0"
         id="stop4264" />
      <stop
         style="stop-color:#aaaaaa;stop-opacity:1;"
         offset="1"
         id="stop4266" />
    </linearGradient>
    <linearGradient
       xlink:href="#linearGradient4262"
       id="linearGradient4268"
       x1="102.25564"
       y1="196.2406"
       x2="100"
       y2="6.0150371"
       gradientUnits="userSpaceOnUse" />
  </defs>
  <g>
  <g id="shadow" stroke="#000000" stroke-opacity="0.37686576" stroke-width="40" fill-opacity="0">
    <circle cx="50" cy="50" r="29"/>
  </g>
    <g id="shape" fill="url(#linearGradient4268)" stroke="#ffffff" stroke-width="7">
    <path
       d="M 49.375 3.75 C 24.693817 3.75 4.6562498 23.613774 4.65625 48.09375 C 4.65625 72.573728 24.693815 92.437502 49.375 92.4375 C 74.056183 92.4375 94.093749 72.57373 94.09375 48.09375 C 94.09375 23.613772 74.056182 3.75 49.375 3.75 z M 48.09375 35.96875 C 54.923038 35.96875 60.46875 41.360414 60.46875 47.96875 C 60.46875 54.577087 54.923037 59.9375 48.09375 59.9375 C 41.264464 59.937499 35.75 54.577086 35.75 47.96875 C 35.75 41.360415 41.264463 35.96875 48.09375 35.96875 z "
       id="path3362" />
    <path
       id="path3366"
       d="M 48.739861,52.775368 A 0,2.7779195 0 1 1 48.739861,52.775368 A 0,2.7779195 0 1 1 48.739861,52.775368 z" />
    </g>
  </g>
</svg>
