<?xml version="1.0" encoding="UTF-8" standalone="no"?>
<svg xmlns="http://www.w3.org/2000/svg" 
   xmlns:svg="http://www.w3.org/2000/svg"
   xmlns:xlink="http://www.w3.org/1999/xlink">
  <defs
     id="defs4">
    <linearGradient
       id="linearGradient4262">
      <stop
         style="stop-color:#555555;stop-opacity:1;"
         offset="0"
         id="stop4264" />
      <stop
         style="stop-color:#aaaaaa;stop-opacity:1;"
         offset="1"
         id="stop4266" />
    </linearGradient>
    <linearGradient
       xlink:href="#linearGradient4262"
       id="linearGradient4268"
       x1="102.25564"
       y1="196.2406"
       x2="100"
       y2="6.0150371"
       gradientUnits="userSpaceOnUse" />
  </defs>
  <g>
  <g id="shadow" fill="#000000" fill-opacity="0.37686576">
  <path
     d="M 1.0524533,78.544913 C 0.71127303,63.415658 0.57626907,39.181731 1.2690716,20.929578 C 1.5743038,12.88811 11.425865,1.5960603 19.465,1.219068 C 35.898958,0.44840365 58.517681,0.12478548 77.08544,0.35267216 C 85.919452,0.46109459 98.939568,11.229321 98.963877,20.063183 C 99.012482,37.726592 99.97436,59.447404 99.613731,78.328314 C 99.443507,87.240521 87.516306,99.376643 78.601768,99.338418 C 62.75366,99.270467 41.611818,100.34927 24.230601,99.121819 C 14.955106,98.466791 1.2620745,87.840326 1.0524533,78.544913 z"
     id="path4547"/>
  </g>
    <g id="shape" fill="url(#linearGradient4268)" stroke="#ffffff" stroke-width="7">
    <path
       d="M 4.8454373,75.286729 C 4.5359708,61.563793 4.4135162,39.582497 5.04192,23.026949 C 5.3187799,15.732962 14.254602,5.4905504 21.546471,5.1486012 C 36.452832,4.449573 56.969066,4.156036 73.810883,4.3627397 C 81.823742,4.4610835 93.633592,14.228365 93.655642,22.241087 C 93.699728,38.26262 94.572196,57.964404 94.24509,75.090265 C 94.090689,83.174049 83.272164,94.182076 75.186264,94.147404 C 60.811295,94.085768 41.634664,95.06429 25.869092,93.950938 C 17.455788,93.356797 5.0355734,83.718102 4.8454373,75.286729 z"
       id="path3988" />
    </g>
  </g>
</svg>
