<?xml version="1.0" encoding="UTF-8" standalone="no"?>
<!-- Created with Inkscape (http://www.inkscape.org/) -->
<svg
   xmlns:dc="http://purl.org/dc/elements/1.1/"
   xmlns:cc="http://creativecommons.org/ns#"
   xmlns:rdf="http://www.w3.org/1999/02/22-rdf-syntax-ns#"
   xmlns:svg="http://www.w3.org/2000/svg"
   xmlns="http://www.w3.org/2000/svg"
   xmlns:sodipodi="http://sodipodi.sourceforge.net/DTD/sodipodi-0.dtd"
   xmlns:inkscape="http://www.inkscape.org/namespaces/inkscape"
   width="100"
   height="100"
   id="svg2"
   sodipodi:version="0.32"
   inkscape:version="0.46"
   version="1.0"
   sodipodi:docname="xPointIcon_shadow.svg"
   inkscape:output_extension="org.inkscape.output.svg.inkscape">
  <defs
     id="defs4">
    <inkscape:perspective
       sodipodi:type="inkscape:persp3d"
       inkscape:vp_x="0 : 526.18109 : 1"
       inkscape:vp_y="0 : 1000 : 0"
       inkscape:vp_z="744.09448 : 526.18109 : 1"
       inkscape:persp3d-origin="372.04724 : 350.78739 : 1"
       id="perspective10" />
  </defs>
  <sodipodi:namedview
     id="base"
     pagecolor="#efe7c4"
     bordercolor="#666666"
     borderopacity="1.0"
     gridtolerance="10000"
     guidetolerance="10"
     objecttolerance="10"
     inkscape:pageopacity="0.99607843"
     inkscape:pageshadow="2"
     inkscape:zoom="3.959798"
     inkscape:cx="13.392857"
     inkscape:cy="39.120894"
     inkscape:document-units="px"
     inkscape:current-layer="layer1"
     showgrid="false"
     inkscape:window-width="840"
     inkscape:window-height="900"
     inkscape:window-x="84"
     inkscape:window-y="18" />
  <metadata
     id="metadata7">
    <rdf:RDF>
      <cc:Work
         rdf:about="">
        <dc:format>image/svg+xml</dc:format>
        <dc:type
           rdf:resource="http://purl.org/dc/dcmitype/StillImage" />
      </cc:Work>
    </rdf:RDF>
  </metadata>
  <g
     inkscape:label="Layer 1"
     inkscape:groupmode="layer"
     id="layer1">
    <g
       id="g5601"
       transform="matrix(0.1911739,0,0,0.1896186,-92.687049,-59.334511)"
       style="opacity:1;fill:#000000;fill-opacity:0.37647059;stroke:none">
      <path
         style="opacity:1;fill:#000000;fill-opacity:0.37647059;stroke:none;stroke-width:8.87171936;stroke-linejoin:round;stroke-miterlimit:4;stroke-dasharray:none;stroke-opacity:1"
         d="M 800.32046,314.03921 C 783.90623,314.98331 767.33891,313.87563 750.85171,314.28921 C 732.49423,314.41639 714.08106,314.03627 695.75796,314.47671 C 690.58577,317.03867 694.38963,324.25121 694.43375,328.77364 C 708.13307,401.70431 721.59729,474.98892 734.82046,547.85171 C 716.20285,555.92671 709.74522,582.55345 722.88296,598.13296 C 735.16411,614.41098 762.47541,614.99447 775.10171,598.78921 C 787.72318,584.01688 783.69118,558.51304 766.25796,549.28921 C 761.05166,547.00656 766.78579,539.68964 766.34386,535.19272 C 780.60689,463.1103 794.86993,391.02788 809.13296,318.94546 C 808.83792,314.72567 803.7653,313.60911 800.32046,314.03921 z"
         id="path5603" />
    </g>
    <g
       id="g5598"
       transform="matrix(0.175822,0,0,0.175822,-41.501564,-62.633622)">
      <path
         style="opacity:1;fill:#aaaaaa;fill-opacity:1;stroke:#ffffff;stroke-width:8.87171936;stroke-linejoin:round;stroke-miterlimit:4;stroke-dasharray:none;stroke-opacity:1"
         d="M 464.15625,364.96875 L 508.6875,606.5625 C 496.83504,610.75418 488.34376,621.96785 488.34375,635.15625 C 488.34375,651.91978 502.06584,665.53123 518.96875,665.53125 C 535.87168,665.53125 549.59375,651.91976 549.59375,635.15625 C 549.59375,622.04958 541.20618,610.90848 529.46875,606.65625 L 577.3125,364.96875 L 464.15625,364.96875 z"
         id="path3982" />
    </g>
  </g>
</svg>
